<mxfile host="app.diagrams.net" agent="Mozilla/5.0 (X11; Linux x86_64) AppleWebKit/537.36 (KHTML, like Gecko) Chrome/140.0.0.0 Safari/537.36" version="28.2.5">
  <diagram name="Page-1" id="pBdMzMLZGXHVTCAenomJ">
    <mxGraphModel dx="2511" dy="963" grid="1" gridSize="10" guides="1" tooltips="1" connect="1" arrows="1" fold="1" page="1" pageScale="1" pageWidth="850" pageHeight="1100" math="0" shadow="0">
      <root>
        <mxCell id="0" />
        <mxCell id="1" parent="0" />
        <mxCell id="rZQBUqHCaS3Qc9dbMizK-1" value="CLI" style="swimlane;whiteSpace=wrap;html=1;spacing=3;" vertex="1" parent="1">
          <mxGeometry x="-340" y="50" width="150" height="127" as="geometry">
            <mxRectangle x="270" y="320" width="80" height="30" as="alternateBounds" />
          </mxGeometry>
        </mxCell>
        <mxCell id="rZQBUqHCaS3Qc9dbMizK-2" value="listener: Listener&lt;div&gt;parser: Parser&lt;/div&gt;&lt;div&gt;global_state: GlobalState&lt;/div&gt;&lt;div&gt;inner_utils: InnerUtils&lt;/div&gt;" style="whiteSpace=wrap;html=1;align=left;" vertex="1" parent="rZQBUqHCaS3Qc9dbMizK-1">
          <mxGeometry y="20" width="150" height="77" as="geometry" />
        </mxCell>
        <mxCell id="rZQBUqHCaS3Qc9dbMizK-3" value="1. start()" style="whiteSpace=wrap;html=1;align=left;" vertex="1" parent="rZQBUqHCaS3Qc9dbMizK-1">
          <mxGeometry y="97" width="150" height="30" as="geometry" />
        </mxCell>
        <mxCell id="rZQBUqHCaS3Qc9dbMizK-5" value="Listener" style="swimlane;whiteSpace=wrap;html=1;" vertex="1" parent="1">
          <mxGeometry x="-540" y="300" width="200" height="110" as="geometry">
            <mxRectangle x="270" y="320" width="80" height="30" as="alternateBounds" />
          </mxGeometry>
        </mxCell>
        <mxCell id="rZQBUqHCaS3Qc9dbMizK-6" value="" style="whiteSpace=wrap;html=1;" vertex="1" parent="rZQBUqHCaS3Qc9dbMizK-5">
          <mxGeometry y="20" width="200" height="60" as="geometry" />
        </mxCell>
        <mxCell id="rZQBUqHCaS3Qc9dbMizK-7" value="&amp;nbsp;1. listen(&amp;amp;self) -&amp;gt; String" style="whiteSpace=wrap;html=1;align=left;" vertex="1" parent="rZQBUqHCaS3Qc9dbMizK-5">
          <mxGeometry y="80" width="200" height="30" as="geometry" />
        </mxCell>
        <mxCell id="rZQBUqHCaS3Qc9dbMizK-9" value="" style="endArrow=classic;html=1;rounded=0;exitX=0.128;exitY=1.075;exitDx=0;exitDy=0;entryX=0.5;entryY=0;entryDx=0;entryDy=0;exitPerimeter=0;" edge="1" parent="1" source="rZQBUqHCaS3Qc9dbMizK-3" target="rZQBUqHCaS3Qc9dbMizK-5">
          <mxGeometry relative="1" as="geometry">
            <mxPoint x="-280" y="260" as="sourcePoint" />
            <mxPoint x="-280" y="455" as="targetPoint" />
            <Array as="points">
              <mxPoint x="-390" y="250" />
            </Array>
          </mxGeometry>
        </mxCell>
        <mxCell id="rZQBUqHCaS3Qc9dbMizK-10" value="Calls 1." style="edgeLabel;resizable=0;html=1;;align=center;verticalAlign=middle;" connectable="0" vertex="1" parent="rZQBUqHCaS3Qc9dbMizK-9">
          <mxGeometry relative="1" as="geometry">
            <mxPoint y="-3" as="offset" />
          </mxGeometry>
        </mxCell>
        <mxCell id="rZQBUqHCaS3Qc9dbMizK-11" value="1" style="edgeLabel;resizable=0;html=1;;align=left;verticalAlign=bottom;" connectable="0" vertex="1" parent="rZQBUqHCaS3Qc9dbMizK-9">
          <mxGeometry x="-1" relative="1" as="geometry">
            <mxPoint x="-39" y="18" as="offset" />
          </mxGeometry>
        </mxCell>
        <mxCell id="rZQBUqHCaS3Qc9dbMizK-12" value="1" style="edgeLabel;resizable=0;html=1;;align=right;verticalAlign=bottom;" connectable="0" vertex="1" parent="rZQBUqHCaS3Qc9dbMizK-9">
          <mxGeometry x="1" relative="1" as="geometry">
            <mxPoint y="-10" as="offset" />
          </mxGeometry>
        </mxCell>
        <mxCell id="rZQBUqHCaS3Qc9dbMizK-14" value="Parser" style="swimlane;whiteSpace=wrap;html=1;" vertex="1" parent="1">
          <mxGeometry x="-270" y="300" width="300" height="150" as="geometry">
            <mxRectangle x="270" y="320" width="80" height="30" as="alternateBounds" />
          </mxGeometry>
        </mxCell>
        <mxCell id="rZQBUqHCaS3Qc9dbMizK-15" value="program_builder: ProgramBuilder&lt;div&gt;context: Context&lt;/div&gt;" style="whiteSpace=wrap;html=1;align=left;" vertex="1" parent="rZQBUqHCaS3Qc9dbMizK-14">
          <mxGeometry y="20" width="300" height="60" as="geometry" />
        </mxCell>
        <mxCell id="rZQBUqHCaS3Qc9dbMizK-16" value="1. apply(&amp;amp;mut self, byte: u8, context: &amp;amp;mut Context) -&amp;gt; anyhow::Result&amp;lt;Option&amp;lt;Program&amp;gt;&amp;gt;&lt;div&gt;2.&amp;nbsp;&lt;span style=&quot;background-color: transparent; color: light-dark(rgb(0, 0, 0), rgb(255, 255, 255));&quot;&gt;finish(&amp;amp;mut self, context: &amp;amp;mut Context) -&amp;gt; anyhow::Result&amp;lt;Option&amp;lt;Program&amp;gt;&amp;gt;&lt;/span&gt;&lt;/div&gt;" style="whiteSpace=wrap;html=1;align=left;" vertex="1" parent="rZQBUqHCaS3Qc9dbMizK-14">
          <mxGeometry y="80" width="300" height="70" as="geometry" />
        </mxCell>
        <mxCell id="rZQBUqHCaS3Qc9dbMizK-17" value="" style="endArrow=classic;html=1;rounded=0;exitX=0.5;exitY=1;exitDx=0;exitDy=0;entryX=0.25;entryY=0;entryDx=0;entryDy=0;" edge="1" parent="1" source="rZQBUqHCaS3Qc9dbMizK-3" target="rZQBUqHCaS3Qc9dbMizK-14">
          <mxGeometry relative="1" as="geometry">
            <mxPoint x="9" y="140" as="sourcePoint" />
            <mxPoint x="-110" y="258" as="targetPoint" />
            <Array as="points" />
          </mxGeometry>
        </mxCell>
        <mxCell id="rZQBUqHCaS3Qc9dbMizK-18" value="Calls 1-2." style="edgeLabel;resizable=0;html=1;;align=center;verticalAlign=middle;" connectable="0" vertex="1" parent="rZQBUqHCaS3Qc9dbMizK-17">
          <mxGeometry relative="1" as="geometry">
            <mxPoint y="-3" as="offset" />
          </mxGeometry>
        </mxCell>
        <mxCell id="rZQBUqHCaS3Qc9dbMizK-19" value="1" style="edgeLabel;resizable=0;html=1;;align=left;verticalAlign=bottom;" connectable="0" vertex="1" parent="rZQBUqHCaS3Qc9dbMizK-17">
          <mxGeometry x="-1" relative="1" as="geometry">
            <mxPoint x="-15" y="18" as="offset" />
          </mxGeometry>
        </mxCell>
        <mxCell id="rZQBUqHCaS3Qc9dbMizK-20" value="1" style="edgeLabel;resizable=0;html=1;;align=right;verticalAlign=bottom;" connectable="0" vertex="1" parent="rZQBUqHCaS3Qc9dbMizK-17">
          <mxGeometry x="1" relative="1" as="geometry">
            <mxPoint x="-20" y="-10" as="offset" />
          </mxGeometry>
        </mxCell>
        <mxCell id="rZQBUqHCaS3Qc9dbMizK-21" value="GlobalState" style="swimlane;whiteSpace=wrap;html=1;" vertex="1" parent="1">
          <mxGeometry x="-40" y="110" width="180" height="80" as="geometry">
            <mxRectangle x="270" y="320" width="80" height="30" as="alternateBounds" />
          </mxGeometry>
        </mxCell>
        <mxCell id="rZQBUqHCaS3Qc9dbMizK-22" value="pub environment: Environment" style="whiteSpace=wrap;html=1;align=left;" vertex="1" parent="rZQBUqHCaS3Qc9dbMizK-21">
          <mxGeometry y="20" width="180" height="40" as="geometry" />
        </mxCell>
        <mxCell id="rZQBUqHCaS3Qc9dbMizK-23" value="" style="whiteSpace=wrap;html=1;align=left;" vertex="1" parent="rZQBUqHCaS3Qc9dbMizK-21">
          <mxGeometry y="60" width="180" height="20" as="geometry" />
        </mxCell>
        <mxCell id="rZQBUqHCaS3Qc9dbMizK-24" value="" style="endArrow=classic;html=1;rounded=0;exitX=1;exitY=0.25;exitDx=0;exitDy=0;entryX=0;entryY=0.25;entryDx=0;entryDy=0;" edge="1" parent="1" source="rZQBUqHCaS3Qc9dbMizK-1" target="rZQBUqHCaS3Qc9dbMizK-22">
          <mxGeometry relative="1" as="geometry">
            <mxPoint x="-20" y="220" as="sourcePoint" />
            <mxPoint x="25" y="343" as="targetPoint" />
            <Array as="points" />
          </mxGeometry>
        </mxCell>
        <mxCell id="rZQBUqHCaS3Qc9dbMizK-26" value="1" style="edgeLabel;resizable=0;html=1;;align=left;verticalAlign=bottom;" connectable="0" vertex="1" parent="rZQBUqHCaS3Qc9dbMizK-24">
          <mxGeometry x="-1" relative="1" as="geometry">
            <mxPoint x="10" y="-2" as="offset" />
          </mxGeometry>
        </mxCell>
        <mxCell id="rZQBUqHCaS3Qc9dbMizK-27" value="1" style="edgeLabel;resizable=0;html=1;;align=right;verticalAlign=bottom;" connectable="0" vertex="1" parent="rZQBUqHCaS3Qc9dbMizK-24">
          <mxGeometry x="1" relative="1" as="geometry">
            <mxPoint x="-10" y="-10" as="offset" />
          </mxGeometry>
        </mxCell>
        <mxCell id="rZQBUqHCaS3Qc9dbMizK-28" value="Environment" style="swimlane;whiteSpace=wrap;html=1;" vertex="1" parent="1">
          <mxGeometry x="220" y="177" width="220" height="130" as="geometry">
            <mxRectangle x="270" y="320" width="80" height="30" as="alternateBounds" />
          </mxGeometry>
        </mxCell>
        <mxCell id="rZQBUqHCaS3Qc9dbMizK-29" value="map: HashMap&amp;lt;String, String&amp;gt;" style="whiteSpace=wrap;html=1;align=left;" vertex="1" parent="rZQBUqHCaS3Qc9dbMizK-28">
          <mxGeometry y="20" width="220" height="40" as="geometry" />
        </mxCell>
        <mxCell id="rZQBUqHCaS3Qc9dbMizK-30" value="1. vars(&amp;amp;self) -&amp;gt; Iter&amp;lt;(String, String)&amp;gt;&lt;br&gt;2. set_var(&amp;amp;mut self, var: Vec&amp;lt;u8&amp;gt;) -&amp;gt; ()&lt;div&gt;3. get_var(&amp;amp;self, name: Vec&amp;lt;u8&amp;gt;) -&amp;gt; ()&lt;/div&gt;" style="whiteSpace=wrap;html=1;align=left;" vertex="1" parent="rZQBUqHCaS3Qc9dbMizK-28">
          <mxGeometry y="60" width="220" height="70" as="geometry" />
        </mxCell>
        <mxCell id="rZQBUqHCaS3Qc9dbMizK-31" value="" style="endArrow=classic;html=1;rounded=0;exitX=1;exitY=0.5;exitDx=0;exitDy=0;entryX=0.25;entryY=0;entryDx=0;entryDy=0;" edge="1" parent="1" source="rZQBUqHCaS3Qc9dbMizK-21" target="rZQBUqHCaS3Qc9dbMizK-28">
          <mxGeometry relative="1" as="geometry">
            <mxPoint x="270" y="150" as="sourcePoint" />
            <mxPoint x="420" y="208" as="targetPoint" />
            <Array as="points" />
          </mxGeometry>
        </mxCell>
        <mxCell id="rZQBUqHCaS3Qc9dbMizK-32" value="1" style="edgeLabel;resizable=0;html=1;;align=left;verticalAlign=bottom;" connectable="0" vertex="1" parent="rZQBUqHCaS3Qc9dbMizK-31">
          <mxGeometry x="-1" relative="1" as="geometry">
            <mxPoint x="10" y="-2" as="offset" />
          </mxGeometry>
        </mxCell>
        <mxCell id="rZQBUqHCaS3Qc9dbMizK-33" value="1" style="edgeLabel;resizable=0;html=1;;align=right;verticalAlign=bottom;" connectable="0" vertex="1" parent="rZQBUqHCaS3Qc9dbMizK-31">
          <mxGeometry x="1" relative="1" as="geometry">
            <mxPoint x="-10" y="-10" as="offset" />
          </mxGeometry>
        </mxCell>
        <mxCell id="rZQBUqHCaS3Qc9dbMizK-37" value="Context" style="swimlane;whiteSpace=wrap;html=1;" vertex="1" parent="1">
          <mxGeometry x="60" y="410" width="220" height="100" as="geometry">
            <mxRectangle x="270" y="320" width="80" height="30" as="alternateBounds" />
          </mxGeometry>
        </mxCell>
        <mxCell id="rZQBUqHCaS3Qc9dbMizK-38" value="pub arg_builder_state: ArgBuilderState&lt;div&gt;pub token_in_process: bool&lt;/div&gt;&lt;div&gt;pub current_arg_is_setter: bool&lt;/div&gt;" style="whiteSpace=wrap;html=1;align=left;" vertex="1" parent="rZQBUqHCaS3Qc9dbMizK-37">
          <mxGeometry y="20" width="220" height="60" as="geometry" />
        </mxCell>
        <mxCell id="rZQBUqHCaS3Qc9dbMizK-39" value="" style="whiteSpace=wrap;html=1;align=left;" vertex="1" parent="rZQBUqHCaS3Qc9dbMizK-37">
          <mxGeometry y="80" width="220" height="20" as="geometry" />
        </mxCell>
        <mxCell id="rZQBUqHCaS3Qc9dbMizK-40" value="" style="endArrow=classic;html=1;rounded=0;exitX=1;exitY=0.25;exitDx=0;exitDy=0;entryX=0.25;entryY=0;entryDx=0;entryDy=0;" edge="1" parent="1" source="rZQBUqHCaS3Qc9dbMizK-14" target="rZQBUqHCaS3Qc9dbMizK-37">
          <mxGeometry relative="1" as="geometry">
            <mxPoint x="-20" y="290" as="sourcePoint" />
            <mxPoint x="115" y="317" as="targetPoint" />
            <Array as="points" />
          </mxGeometry>
        </mxCell>
        <mxCell id="rZQBUqHCaS3Qc9dbMizK-41" value="1" style="edgeLabel;resizable=0;html=1;;align=left;verticalAlign=bottom;" connectable="0" vertex="1" parent="rZQBUqHCaS3Qc9dbMizK-40">
          <mxGeometry x="-1" relative="1" as="geometry">
            <mxPoint x="10" y="3" as="offset" />
          </mxGeometry>
        </mxCell>
        <mxCell id="rZQBUqHCaS3Qc9dbMizK-42" value="1" style="edgeLabel;resizable=0;html=1;;align=right;verticalAlign=bottom;" connectable="0" vertex="1" parent="rZQBUqHCaS3Qc9dbMizK-40">
          <mxGeometry x="1" relative="1" as="geometry">
            <mxPoint x="-5" y="-10" as="offset" />
          </mxGeometry>
        </mxCell>
        <mxCell id="rZQBUqHCaS3Qc9dbMizK-43" value="ProgramBuilder" style="swimlane;whiteSpace=wrap;html=1;" vertex="1" parent="1">
          <mxGeometry x="-275" y="570" width="310" height="150" as="geometry">
            <mxRectangle x="270" y="320" width="80" height="30" as="alternateBounds" />
          </mxGeometry>
        </mxCell>
        <mxCell id="rZQBUqHCaS3Qc9dbMizK-45" value="1. apply(&amp;amp;mut self, byte: u8, context: &amp;amp;mut Context) -&amp;gt; anyhow::Result&amp;lt;Option&amp;lt;Program&amp;gt;&amp;gt;&lt;div&gt;2.&amp;nbsp;&lt;span style=&quot;background-color: transparent; color: light-dark(rgb(0, 0, 0), rgb(255, 255, 255));&quot;&gt;finish(&amp;amp;mut self, context: &amp;amp;mut Context) -&amp;gt; anyhow::Result&amp;lt;Option&amp;lt;Program&amp;gt;&amp;gt;&lt;/span&gt;&lt;/div&gt;" style="whiteSpace=wrap;html=1;align=left;" vertex="1" parent="rZQBUqHCaS3Qc9dbMizK-43">
          <mxGeometry y="80" width="310" height="70" as="geometry" />
        </mxCell>
        <mxCell id="rZQBUqHCaS3Qc9dbMizK-44" value="current_program: Program&lt;div&gt;arg_builder: ArgBuilder&lt;/div&gt;" style="whiteSpace=wrap;html=1;align=left;" vertex="1" parent="rZQBUqHCaS3Qc9dbMizK-43">
          <mxGeometry y="20" width="310" height="60" as="geometry" />
        </mxCell>
        <mxCell id="rZQBUqHCaS3Qc9dbMizK-48" value="" style="endArrow=classic;html=1;rounded=0;exitX=0.5;exitY=1;exitDx=0;exitDy=0;entryX=0.5;entryY=0;entryDx=0;entryDy=0;" edge="1" parent="1" source="rZQBUqHCaS3Qc9dbMizK-16" target="rZQBUqHCaS3Qc9dbMizK-43">
          <mxGeometry relative="1" as="geometry">
            <mxPoint x="-130" y="490" as="sourcePoint" />
            <mxPoint x="-85" y="613" as="targetPoint" />
            <Array as="points" />
          </mxGeometry>
        </mxCell>
        <mxCell id="rZQBUqHCaS3Qc9dbMizK-49" value="Calls 1-2." style="edgeLabel;resizable=0;html=1;;align=center;verticalAlign=middle;" connectable="0" vertex="1" parent="rZQBUqHCaS3Qc9dbMizK-48">
          <mxGeometry relative="1" as="geometry">
            <mxPoint y="-3" as="offset" />
          </mxGeometry>
        </mxCell>
        <mxCell id="rZQBUqHCaS3Qc9dbMizK-50" value="1" style="edgeLabel;resizable=0;html=1;;align=left;verticalAlign=bottom;" connectable="0" vertex="1" parent="rZQBUqHCaS3Qc9dbMizK-48">
          <mxGeometry x="-1" relative="1" as="geometry">
            <mxPoint x="-15" y="20" as="offset" />
          </mxGeometry>
        </mxCell>
        <mxCell id="rZQBUqHCaS3Qc9dbMizK-51" value="1" style="edgeLabel;resizable=0;html=1;;align=right;verticalAlign=bottom;" connectable="0" vertex="1" parent="rZQBUqHCaS3Qc9dbMizK-48">
          <mxGeometry x="1" relative="1" as="geometry">
            <mxPoint x="-10" y="-10" as="offset" />
          </mxGeometry>
        </mxCell>
        <mxCell id="rZQBUqHCaS3Qc9dbMizK-53" value="ArgBuilder" style="swimlane;whiteSpace=wrap;html=1;" vertex="1" parent="1">
          <mxGeometry x="-280" y="820" width="310" height="150" as="geometry">
            <mxRectangle x="270" y="320" width="80" height="30" as="alternateBounds" />
          </mxGeometry>
        </mxCell>
        <mxCell id="rZQBUqHCaS3Qc9dbMizK-56" value="1. apply(&amp;amp;mut self, byte: u8, context: &amp;amp;mut Context) -&amp;gt; anyhow::Result&amp;lt;Option&amp;lt;Arg&amp;gt;&amp;gt;&lt;div&gt;2.&amp;nbsp;&lt;span style=&quot;background-color: transparent; color: light-dark(rgb(0, 0, 0), rgb(255, 255, 255));&quot;&gt;finish(&amp;amp;mut self, context: &amp;amp;mut Context) -&amp;gt; anyhow::Result&amp;lt;Option&amp;lt;Arg&amp;gt;&amp;gt;&lt;/span&gt;&lt;/div&gt;" style="whiteSpace=wrap;html=1;align=left;" vertex="1" parent="rZQBUqHCaS3Qc9dbMizK-53">
          <mxGeometry y="80" width="310" height="70" as="geometry" />
        </mxCell>
        <mxCell id="rZQBUqHCaS3Qc9dbMizK-54" value="current_arg: Arg&lt;div&gt;current_token: Token&lt;/div&gt;" style="whiteSpace=wrap;html=1;align=left;" vertex="1" parent="rZQBUqHCaS3Qc9dbMizK-53">
          <mxGeometry y="20" width="310" height="60" as="geometry" />
        </mxCell>
        <mxCell id="rZQBUqHCaS3Qc9dbMizK-57" value="Program" style="swimlane;whiteSpace=wrap;html=1;" vertex="1" parent="1">
          <mxGeometry x="60" y="690" width="310" height="100" as="geometry">
            <mxRectangle x="270" y="320" width="80" height="30" as="alternateBounds" />
          </mxGeometry>
        </mxCell>
        <mxCell id="rZQBUqHCaS3Qc9dbMizK-58" value="data: Vec&amp;lt;Arg&amp;gt;" style="whiteSpace=wrap;html=1;align=left;" vertex="1" parent="rZQBUqHCaS3Qc9dbMizK-57">
          <mxGeometry y="20" width="310" height="30" as="geometry" />
        </mxCell>
        <mxCell id="rZQBUqHCaS3Qc9dbMizK-59" value="1. execute(self, gs: &amp;amp;mut GlobalState, iu: &amp;amp;InnerUtils) -&amp;gt; ProgramOutput" style="whiteSpace=wrap;html=1;align=left;" vertex="1" parent="rZQBUqHCaS3Qc9dbMizK-57">
          <mxGeometry y="50" width="310" height="50" as="geometry" />
        </mxCell>
        <mxCell id="rZQBUqHCaS3Qc9dbMizK-60" value="" style="endArrow=classic;html=1;rounded=0;exitX=1;exitY=0.5;exitDx=0;exitDy=0;entryX=0.161;entryY=0;entryDx=0;entryDy=0;entryPerimeter=0;" edge="1" parent="1" source="rZQBUqHCaS3Qc9dbMizK-44" target="rZQBUqHCaS3Qc9dbMizK-57">
          <mxGeometry relative="1" as="geometry">
            <mxPoint x="200" y="610" as="sourcePoint" />
            <mxPoint x="285" y="682" as="targetPoint" />
            <Array as="points" />
          </mxGeometry>
        </mxCell>
        <mxCell id="rZQBUqHCaS3Qc9dbMizK-61" value="1" style="edgeLabel;resizable=0;html=1;;align=left;verticalAlign=bottom;" connectable="0" vertex="1" parent="rZQBUqHCaS3Qc9dbMizK-60">
          <mxGeometry x="-1" relative="1" as="geometry">
            <mxPoint x="10" y="-2" as="offset" />
          </mxGeometry>
        </mxCell>
        <mxCell id="rZQBUqHCaS3Qc9dbMizK-62" value="1" style="edgeLabel;resizable=0;html=1;;align=right;verticalAlign=bottom;" connectable="0" vertex="1" parent="rZQBUqHCaS3Qc9dbMizK-60">
          <mxGeometry x="1" relative="1" as="geometry">
            <mxPoint y="-10" as="offset" />
          </mxGeometry>
        </mxCell>
        <mxCell id="rZQBUqHCaS3Qc9dbMizK-63" value="ProgramOutput" style="swimlane;whiteSpace=wrap;html=1;" vertex="1" parent="1">
          <mxGeometry x="410" y="800" width="120" height="100" as="geometry">
            <mxRectangle x="270" y="320" width="80" height="30" as="alternateBounds" />
          </mxGeometry>
        </mxCell>
        <mxCell id="rZQBUqHCaS3Qc9dbMizK-64" value="pub code: i32&lt;div&gt;pub stdout: Vec&amp;lt;u8&amp;gt;&lt;/div&gt;&lt;div&gt;pub stderr: Vec&amp;lt;u8&amp;gt;&lt;/div&gt;" style="whiteSpace=wrap;html=1;align=left;" vertex="1" parent="rZQBUqHCaS3Qc9dbMizK-63">
          <mxGeometry y="20" width="120" height="60" as="geometry" />
        </mxCell>
        <mxCell id="rZQBUqHCaS3Qc9dbMizK-65" value="" style="whiteSpace=wrap;html=1;align=left;" vertex="1" parent="rZQBUqHCaS3Qc9dbMizK-63">
          <mxGeometry y="80" width="120" height="20" as="geometry" />
        </mxCell>
        <mxCell id="rZQBUqHCaS3Qc9dbMizK-66" value="" style="endArrow=classic;html=1;rounded=0;exitX=1;exitY=0.5;exitDx=0;exitDy=0;entryX=0.25;entryY=0;entryDx=0;entryDy=0;" edge="1" parent="1" source="rZQBUqHCaS3Qc9dbMizK-57" target="rZQBUqHCaS3Qc9dbMizK-63">
          <mxGeometry relative="1" as="geometry">
            <mxPoint x="500" y="670" as="sourcePoint" />
            <mxPoint x="575" y="740" as="targetPoint" />
            <Array as="points" />
          </mxGeometry>
        </mxCell>
        <mxCell id="rZQBUqHCaS3Qc9dbMizK-67" value="1" style="edgeLabel;resizable=0;html=1;;align=left;verticalAlign=bottom;" connectable="0" vertex="1" parent="rZQBUqHCaS3Qc9dbMizK-66">
          <mxGeometry x="-1" relative="1" as="geometry">
            <mxPoint x="10" y="-2" as="offset" />
          </mxGeometry>
        </mxCell>
        <mxCell id="rZQBUqHCaS3Qc9dbMizK-68" value="1" style="edgeLabel;resizable=0;html=1;;align=right;verticalAlign=bottom;" connectable="0" vertex="1" parent="rZQBUqHCaS3Qc9dbMizK-66">
          <mxGeometry x="1" relative="1" as="geometry">
            <mxPoint y="-10" as="offset" />
          </mxGeometry>
        </mxCell>
        <mxCell id="rZQBUqHCaS3Qc9dbMizK-69" value="" style="endArrow=classic;html=1;rounded=0;exitX=0.5;exitY=1;exitDx=0;exitDy=0;entryX=0.52;entryY=0.011;entryDx=0;entryDy=0;entryPerimeter=0;" edge="1" parent="1" source="rZQBUqHCaS3Qc9dbMizK-43" target="rZQBUqHCaS3Qc9dbMizK-53">
          <mxGeometry relative="1" as="geometry">
            <mxPoint x="-100" y="760" as="sourcePoint" />
            <mxPoint x="-100" y="880" as="targetPoint" />
            <Array as="points" />
          </mxGeometry>
        </mxCell>
        <mxCell id="rZQBUqHCaS3Qc9dbMizK-70" value="Calls 1-2." style="edgeLabel;resizable=0;html=1;;align=center;verticalAlign=middle;" connectable="0" vertex="1" parent="rZQBUqHCaS3Qc9dbMizK-69">
          <mxGeometry relative="1" as="geometry">
            <mxPoint y="-3" as="offset" />
          </mxGeometry>
        </mxCell>
        <mxCell id="rZQBUqHCaS3Qc9dbMizK-71" value="1" style="edgeLabel;resizable=0;html=1;;align=left;verticalAlign=bottom;" connectable="0" vertex="1" parent="rZQBUqHCaS3Qc9dbMizK-69">
          <mxGeometry x="-1" relative="1" as="geometry">
            <mxPoint x="-15" y="20" as="offset" />
          </mxGeometry>
        </mxCell>
        <mxCell id="rZQBUqHCaS3Qc9dbMizK-72" value="1" style="edgeLabel;resizable=0;html=1;;align=right;verticalAlign=bottom;" connectable="0" vertex="1" parent="rZQBUqHCaS3Qc9dbMizK-69">
          <mxGeometry x="1" relative="1" as="geometry">
            <mxPoint x="-10" y="-10" as="offset" />
          </mxGeometry>
        </mxCell>
        <mxCell id="rZQBUqHCaS3Qc9dbMizK-74" value="Arg" style="swimlane;whiteSpace=wrap;html=1;" vertex="1" parent="1">
          <mxGeometry x="60" y="940" width="410" height="120" as="geometry">
            <mxRectangle x="270" y="320" width="80" height="30" as="alternateBounds" />
          </mxGeometry>
        </mxCell>
        <mxCell id="rZQBUqHCaS3Qc9dbMizK-77" value="" style="edgeStyle=orthogonalEdgeStyle;rounded=0;orthogonalLoop=1;jettySize=auto;html=1;" edge="1" parent="rZQBUqHCaS3Qc9dbMizK-74" source="rZQBUqHCaS3Qc9dbMizK-75" target="rZQBUqHCaS3Qc9dbMizK-76">
          <mxGeometry relative="1" as="geometry" />
        </mxCell>
        <mxCell id="rZQBUqHCaS3Qc9dbMizK-75" value="data: Vec&amp;lt;Token&amp;gt;&lt;div&gt;kind: ArgType&lt;/div&gt;" style="whiteSpace=wrap;html=1;align=left;" vertex="1" parent="rZQBUqHCaS3Qc9dbMizK-74">
          <mxGeometry y="20" width="410" height="50" as="geometry" />
        </mxCell>
        <mxCell id="rZQBUqHCaS3Qc9dbMizK-76" value="1. into_string_with_executing(self, gs: &amp;amp;mut GlobalState, iu: &amp;amp;InnerUtils) -&amp;gt; ProgramOutput" style="whiteSpace=wrap;html=1;align=left;" vertex="1" parent="rZQBUqHCaS3Qc9dbMizK-74">
          <mxGeometry y="70" width="410" height="50" as="geometry" />
        </mxCell>
        <mxCell id="rZQBUqHCaS3Qc9dbMizK-78" value="" style="endArrow=classic;html=1;rounded=0;exitX=1;exitY=0.25;exitDx=0;exitDy=0;entryX=0.111;entryY=-0.025;entryDx=0;entryDy=0;entryPerimeter=0;" edge="1" parent="1" source="rZQBUqHCaS3Qc9dbMizK-53" target="rZQBUqHCaS3Qc9dbMizK-74">
          <mxGeometry relative="1" as="geometry">
            <mxPoint x="70" y="870" as="sourcePoint" />
            <mxPoint x="145" y="940" as="targetPoint" />
            <Array as="points" />
          </mxGeometry>
        </mxCell>
        <mxCell id="rZQBUqHCaS3Qc9dbMizK-79" value="1" style="edgeLabel;resizable=0;html=1;;align=left;verticalAlign=bottom;" connectable="0" vertex="1" parent="rZQBUqHCaS3Qc9dbMizK-78">
          <mxGeometry x="-1" relative="1" as="geometry">
            <mxPoint x="10" y="-2" as="offset" />
          </mxGeometry>
        </mxCell>
        <mxCell id="rZQBUqHCaS3Qc9dbMizK-80" value="1" style="edgeLabel;resizable=0;html=1;;align=right;verticalAlign=bottom;" connectable="0" vertex="1" parent="rZQBUqHCaS3Qc9dbMizK-78">
          <mxGeometry x="1" relative="1" as="geometry">
            <mxPoint y="-10" as="offset" />
          </mxGeometry>
        </mxCell>
        <mxCell id="rZQBUqHCaS3Qc9dbMizK-81" value="Token" style="swimlane;whiteSpace=wrap;html=1;" vertex="1" parent="1">
          <mxGeometry x="-280" y="1100" width="310" height="150" as="geometry">
            <mxRectangle x="270" y="320" width="80" height="30" as="alternateBounds" />
          </mxGeometry>
        </mxCell>
        <mxCell id="rZQBUqHCaS3Qc9dbMizK-82" value="1. apply(&amp;amp;mut self, byte: u8, context: &amp;amp;mut Context) -&amp;gt; anyhow::Result&amp;lt;Option&amp;lt;Self&amp;gt;&amp;gt;&lt;div&gt;2.&amp;nbsp;&lt;span style=&quot;background-color: transparent; color: light-dark(rgb(0, 0, 0), rgb(255, 255, 255));&quot;&gt;finish(&amp;amp;mut self, context: &amp;amp;mut Context) -&amp;gt; Option&amp;lt;Self&amp;gt;&lt;/span&gt;&lt;/div&gt;" style="whiteSpace=wrap;html=1;align=left;" vertex="1" parent="rZQBUqHCaS3Qc9dbMizK-81">
          <mxGeometry y="80" width="310" height="70" as="geometry" />
        </mxCell>
        <mxCell id="rZQBUqHCaS3Qc9dbMizK-83" value="buffer: Vec&amp;lt;u8&amp;gt;&lt;div&gt;kind: TokenType&lt;/div&gt;" style="whiteSpace=wrap;html=1;align=left;" vertex="1" parent="rZQBUqHCaS3Qc9dbMizK-81">
          <mxGeometry y="20" width="310" height="60" as="geometry" />
        </mxCell>
        <mxCell id="rZQBUqHCaS3Qc9dbMizK-84" value="" style="endArrow=classic;html=1;rounded=0;exitX=0.5;exitY=1;exitDx=0;exitDy=0;entryX=0.5;entryY=0;entryDx=0;entryDy=0;" edge="1" parent="1" source="rZQBUqHCaS3Qc9dbMizK-53" target="rZQBUqHCaS3Qc9dbMizK-81">
          <mxGeometry relative="1" as="geometry">
            <mxPoint x="-110" y="1030" as="sourcePoint" />
            <mxPoint x="-109" y="1132" as="targetPoint" />
            <Array as="points" />
          </mxGeometry>
        </mxCell>
        <mxCell id="rZQBUqHCaS3Qc9dbMizK-85" value="Calls 1-2." style="edgeLabel;resizable=0;html=1;;align=center;verticalAlign=middle;" connectable="0" vertex="1" parent="rZQBUqHCaS3Qc9dbMizK-84">
          <mxGeometry relative="1" as="geometry">
            <mxPoint y="-3" as="offset" />
          </mxGeometry>
        </mxCell>
        <mxCell id="rZQBUqHCaS3Qc9dbMizK-86" value="1" style="edgeLabel;resizable=0;html=1;;align=left;verticalAlign=bottom;" connectable="0" vertex="1" parent="rZQBUqHCaS3Qc9dbMizK-84">
          <mxGeometry x="-1" relative="1" as="geometry">
            <mxPoint x="-15" y="20" as="offset" />
          </mxGeometry>
        </mxCell>
        <mxCell id="rZQBUqHCaS3Qc9dbMizK-87" value="1" style="edgeLabel;resizable=0;html=1;;align=right;verticalAlign=bottom;" connectable="0" vertex="1" parent="rZQBUqHCaS3Qc9dbMizK-84">
          <mxGeometry x="1" relative="1" as="geometry">
            <mxPoint x="-10" y="-10" as="offset" />
          </mxGeometry>
        </mxCell>
        <mxCell id="rZQBUqHCaS3Qc9dbMizK-88" value="InnerUtils" style="swimlane;whiteSpace=wrap;html=1;" vertex="1" parent="1">
          <mxGeometry x="-830" y="160" width="390" height="90" as="geometry">
            <mxRectangle x="270" y="320" width="80" height="30" as="alternateBounds" />
          </mxGeometry>
        </mxCell>
        <mxCell id="rZQBUqHCaS3Qc9dbMizK-89" value="utils:&amp;nbsp;HashMap&amp;lt;String, fn(args: Vec&amp;lt;String&amp;gt;, gs: &amp;amp;mut GlobalState) -&amp;gt; ProgramOutput&amp;gt;" style="whiteSpace=wrap;html=1;align=left;" vertex="1" parent="rZQBUqHCaS3Qc9dbMizK-88">
          <mxGeometry y="20" width="390" height="40" as="geometry" />
        </mxCell>
        <mxCell id="rZQBUqHCaS3Qc9dbMizK-90" value="1. execute(&amp;amp;self, program: ..., gs: &amp;amp;mut GlobalState) -&amp;gt; ProgramOutput" style="whiteSpace=wrap;html=1;align=left;" vertex="1" parent="rZQBUqHCaS3Qc9dbMizK-88">
          <mxGeometry y="60" width="390" height="30" as="geometry" />
        </mxCell>
        <mxCell id="rZQBUqHCaS3Qc9dbMizK-91" value="" style="endArrow=classic;html=1;rounded=0;exitX=0;exitY=0.25;exitDx=0;exitDy=0;entryX=0.75;entryY=0;entryDx=0;entryDy=0;" edge="1" parent="1" source="rZQBUqHCaS3Qc9dbMizK-2" target="rZQBUqHCaS3Qc9dbMizK-88">
          <mxGeometry relative="1" as="geometry">
            <mxPoint x="-321" y="110" as="sourcePoint" />
            <mxPoint x="-440" y="231" as="targetPoint" />
            <Array as="points">
              <mxPoint x="-430" y="120" />
            </Array>
          </mxGeometry>
        </mxCell>
        <mxCell id="rZQBUqHCaS3Qc9dbMizK-92" value="Calls 1." style="edgeLabel;resizable=0;html=1;;align=center;verticalAlign=middle;" connectable="0" vertex="1" parent="rZQBUqHCaS3Qc9dbMizK-91">
          <mxGeometry relative="1" as="geometry">
            <mxPoint y="-3" as="offset" />
          </mxGeometry>
        </mxCell>
        <mxCell id="rZQBUqHCaS3Qc9dbMizK-93" value="1" style="edgeLabel;resizable=0;html=1;;align=left;verticalAlign=bottom;" connectable="0" vertex="1" parent="rZQBUqHCaS3Qc9dbMizK-91">
          <mxGeometry x="-1" relative="1" as="geometry">
            <mxPoint x="-20" y="1" as="offset" />
          </mxGeometry>
        </mxCell>
        <mxCell id="rZQBUqHCaS3Qc9dbMizK-94" value="1" style="edgeLabel;resizable=0;html=1;;align=right;verticalAlign=bottom;" connectable="0" vertex="1" parent="rZQBUqHCaS3Qc9dbMizK-91">
          <mxGeometry x="1" relative="1" as="geometry">
            <mxPoint x="8" y="-10" as="offset" />
          </mxGeometry>
        </mxCell>
      </root>
    </mxGraphModel>
  </diagram>
</mxfile>
